<?xml version="1.0" encoding="utf-8"?>
<!-- Generator: Adobe Illustrator 15.1.0, SVG Export Plug-In . SVG Version: 6.00 Build 0)  -->
<!DOCTYPE svg PUBLIC "-//W3C//DTD SVG 1.1//EN" "http://www.w3.org/Graphics/SVG/1.1/DTD/svg11.dtd">
<svg version="1.1" id="Ebene_1" xmlns="http://www.w3.org/2000/svg" xmlns:xlink="http://www.w3.org/1999/xlink" x="0px" y="0px"
	 width="557.926px" height="557.93px" viewBox="0 0 557.926 557.93" enable-background="new 0 0 557.926 557.93"
	 xml:space="preserve">
<path d="M557.926,278.965c0,154.07-124.895,278.965-278.965,278.965C124.895,557.93,0,433.035,0,278.965
	C0,124.898,124.895,0,278.961,0C433.031,0,557.926,124.898,557.926,278.965z"/>
<g>
	<path fill="#FFFFFF" d="M177.466,360.802V219.92h-47.871v-25.156h47.871v-65.411h34.803v65.411h67.073v25.156h-67.073v141.723
		c0,20.969,7.129,25.998,29.345,25.998l22.645-0.841v24.326c-8.382,0.835-22.216,2.089-29.768,2.089
		C192.981,413.215,177.466,401.057,177.466,360.802z"/>
	<path fill="#FFFFFF" d="M316.944,460.653l-0.706-240.733h-55.089v-25.156h55.089v-26.833c0-38.578,15.938-57.447,57.029-57.447
		c7.547,0,21.391,1.259,29.764,2.094v24.321l-22.635-0.841c-22.222,0-29.351,10.063-29.351,31.027v27.679h51.985v25.156h-51.985
		v240.733H316.944z"/>
</g>
</svg>
