<?xml version="1.0" encoding="utf-8"?>
<!-- Generator: Adobe Illustrator 15.1.0, SVG Export Plug-In . SVG Version: 6.00 Build 0)  -->
<!DOCTYPE svg PUBLIC "-//W3C//DTD SVG 1.1//EN" "http://www.w3.org/Graphics/SVG/1.1/DTD/svg11.dtd">
<svg version="1.1" id="Ebene_1" xmlns="http://www.w3.org/2000/svg" xmlns:xlink="http://www.w3.org/1999/xlink" x="0px" y="0px"
	 width="792.989px" height="154.448px" viewBox="0 0 792.989 154.448" enable-background="new 0 0 792.989 154.448"
	 xml:space="preserve">
<rect x="135.488" y="1.236" fill="none" width="494.107" height="356.372"/>
<text transform="matrix(1 0 0 1 135.4902 133.6353)" font-family="'Arial-Black'" font-size="184.9288">QMR</text>
<rect x="612.256" y="68.451" fill="none" width="377.637" height="181.831"/>
<text transform="matrix(1 0 0 1 612.2637 134.6489)" font-family="'Arial-Black'" font-size="92.4644">gpu</text>
<g>
	<path d="M21.113,110.408V48.27H0V37.174h21.113V8.322h15.35v28.852h29.586V48.27H36.463v62.508c0,9.25,3.145,11.467,12.945,11.467
		l9.986-0.369v10.727c-3.697,0.369-9.801,0.926-13.131,0.926C27.957,133.528,21.113,128.163,21.113,110.408z"/>
	<path d="M82.635,154.448L82.322,48.27H66.049V37.174h16.273V25.338C82.322,8.322,89.352,0,107.475,0
		c3.328,0,9.434,0.557,13.131,0.926V11.65l-9.986-0.369c-9.801,0-12.945,4.439-12.945,13.686v12.207h22.932V48.27H97.674v106.178
		H82.635z"/>
</g>
<line fill="none" x1="-109.639" y1="0" x2="859.576" y2="0"/>
</svg>
